<svg width="18" height="18" viewBox="0 0 18 18" fill="none" xmlns="http://www.w3.org/2000/svg">
<path fill-rule="evenodd" clip-rule="evenodd" d="M8.58332 1.29166C4.55625 1.29166 1.29166 4.55625 1.29166 8.58332C1.29166 12.6104 4.55625 15.875 8.58332 15.875C12.6104 15.875 15.875 12.6104 15.875 8.58332C15.875 4.55625 12.6104 1.29166 8.58332 1.29166ZM0.0416565 8.58332C0.0416565 3.86589 3.86589 0.0416565 8.58332 0.0416565C13.3008 0.0416565 17.125 3.86589 17.125 8.58332C17.125 10.7171 16.3426 12.6681 15.049 14.1652L17.7753 16.8914C18.0193 17.1355 18.0193 17.5312 17.7753 17.7753C17.5312 18.0193 17.1355 18.0193 16.8914 17.7753L14.1652 15.049C12.6681 16.3426 10.7171 17.125 8.58332 17.125C3.86589 17.125 0.0416565 13.3008 0.0416565 8.58332Z" fill="#727272"/>
</svg>
