<svg width="23" height="22" viewBox="0 0 23 22" fill="none" xmlns="http://www.w3.org/2000/svg">
<path d="M17.2428 9.48014C17.508 9.16193 17.465 8.68901 17.1468 8.42383C16.8286 8.15866 16.3557 8.20165 16.0905 8.51986L14.2936 10.6761C13.9228 11.1211 13.6951 11.3915 13.5075 11.5609C13.4205 11.6394 13.3689 11.6708 13.3442 11.6827C13.3392 11.6852 13.3356 11.6866 13.3333 11.6875C13.3311 11.6866 13.3275 11.6852 13.3225 11.6827C13.2977 11.6708 13.2461 11.6394 13.1591 11.5609C12.9715 11.3915 12.7438 11.1211 12.373 10.6761L12.0807 10.3252C11.7522 9.93101 11.4561 9.5756 11.1795 9.32583C10.8785 9.05408 10.4995 8.81205 9.99999 8.81205C9.5005 8.81205 9.12144 9.05408 8.8205 9.32583C8.5439 9.5756 8.24779 9.93101 7.91933 10.3253L6.09049 12.5199C5.82532 12.8381 5.86831 13.311 6.18652 13.5762C6.50473 13.8413 6.97765 13.7983 7.24282 13.4801L9.03971 11.3239C9.41051 10.8789 9.63821 10.6085 9.82579 10.4391C9.91278 10.3606 9.96439 10.3292 9.98912 10.3173C9.99415 10.3148 9.99773 10.3134 9.99999 10.3125C10.0023 10.3134 10.0058 10.3148 10.0109 10.3173C10.0356 10.3292 10.0872 10.3606 10.1742 10.4391C10.3618 10.6085 10.5895 10.8789 10.9603 11.3239L11.2527 11.6748C11.5811 12.069 11.8772 12.4244 12.1538 12.6742C12.4548 12.9459 12.8338 13.188 13.3333 13.188C13.8328 13.188 14.2119 12.9459 14.5128 12.6742C14.7894 12.4244 15.0855 12.069 15.414 11.6748L17.2428 9.48014Z" fill="#727272"/>
<path fill-rule="evenodd" clip-rule="evenodd" d="M11.6093 0.25C9.30089 0.249987 7.49185 0.249977 6.08036 0.439747C4.63563 0.633986 3.4956 1.03933 2.60079 1.93414C1.70598 2.82895 1.30064 3.96897 1.1064 5.41371C0.916634 6.82519 0.916644 8.63423 0.916657 10.9426V11.0574C0.916644 13.3658 0.916634 15.1748 1.1064 16.5863C1.30064 18.031 1.70598 19.1711 2.60079 20.0659C3.4956 20.9607 4.63563 21.366 6.08036 21.5603C7.49185 21.75 9.30089 21.75 11.6093 21.75H11.724C14.0324 21.75 15.8415 21.75 17.253 21.5603C18.6977 21.366 19.8377 20.9607 20.7325 20.0659C21.6273 19.1711 22.0327 18.031 22.2269 16.5863C22.4167 15.1748 22.4167 13.3658 22.4167 11.0574V10.9426C22.4167 8.63423 22.4167 6.82519 22.2269 5.41371C22.0327 3.96897 21.6273 2.82895 20.7325 1.93414C19.8377 1.03933 18.6977 0.633986 17.253 0.439747C15.8415 0.249977 14.0324 0.249987 11.724 0.25H11.6093ZM3.66145 2.9948C4.23111 2.42514 5.00183 2.09825 6.28023 1.92637C7.58021 1.75159 9.28843 1.75 11.6667 1.75C14.0449 1.75 15.7531 1.75159 17.0531 1.92637C18.3315 2.09825 19.1022 2.42514 19.6719 2.9948C20.2415 3.56445 20.5684 4.33517 20.7403 5.61358C20.9151 6.91356 20.9167 8.62178 20.9167 11C20.9167 13.3782 20.9151 15.0864 20.7403 16.3864C20.5684 17.6648 20.2415 18.4355 19.6719 19.0052C19.1022 19.5749 18.3315 19.9018 17.0531 20.0736C15.7531 20.2484 14.0449 20.25 11.6667 20.25C9.28843 20.25 7.58021 20.2484 6.28023 20.0736C5.00183 19.9018 4.23111 19.5749 3.66145 19.0052C3.0918 18.4355 2.7649 17.6648 2.59303 16.3864C2.41825 15.0864 2.41666 13.3782 2.41666 11C2.41666 8.62178 2.41825 6.91356 2.59303 5.61358C2.7649 4.33517 3.0918 3.56445 3.66145 2.9948Z" fill="#727272"/>
</svg>
